<svg xmlns="http://www.w3.org/2000/svg" viewBox="0 0 150 80" stroke-linejoin="round"><style>.a{fill:#a960ff;}</style><path d="M86.2 0L86.2 79.5 73.2 79.5 73.2 28.2C73.2 26.1 73.3 23.9 73.5 21.5L49.5 66.6C48.3 68.8 46.6 69.9 44.3 69.9L42.1 69.9C39.8 69.9 38.1 68.8 37 66.6L12.6 21.4C12.8 22.6 12.8 23.8 12.9 24.9 13 26.1 13 27.2 13 28.2L13 79.5 0 79.5 0 0 11.2 0C11.8 0 12.4 0 12.9 0.1 13.3 0.1 13.8 0.2 14.1 0.4 14.5 0.5 14.9 0.8 15.2 1.1 15.5 1.4 15.8 1.9 16.1 2.4L39.9 46.5C40.5 47.7 41.1 48.9 41.6 50.2 42.1 51.4 42.7 52.7 43.2 54 43.7 52.6 44.3 51.3 44.8 50 45.4 48.8 45.9 47.6 46.6 46.4L70 2.4C70.3 1.9 70.7 1.4 71 1.1 71.3 0.8 71.7 0.5 72 0.4 72.4 0.2 72.9 0.1 73.3 0.1 73.8 0 74.4 0 75 0L86.2 0Z" class="a"/><path d="M150 0L117.9 79.5 104.6 79.5 72.5 0 84.3 0C85.6 0 86.7 0.3 87.5 1 88.2 1.6 88.8 2.4 89.3 3.4L108 51.9C108.6 53.4 109.2 55.2 109.8 57 110.3 58.9 110.9 60.9 111.4 63 111.9 60.9 112.3 58.9 112.9 57 113.4 55.2 113.9 53.4 114.6 51.9L133.2 3.4C133.5 2.5 134.1 1.8 134.9 1.1 135.8 0.4 136.8 0 138.1 0L150 0Z" class="a"/><path d="M80.8 59.9L101.7 59.9" style="fill:none;stroke-width:9;stroke:#a960ff"/></svg>
